<?xml version="1.0" standalone="no"?>
<!DOCTYPE svg PUBLIC "-//W3C//DTD SVG 20010904//EN"
 "http://www.w3.org/TR/2001/REC-SVG-20010904/DTD/svg10.dtd">
<svg version="1.0" xmlns="http://www.w3.org/2000/svg"
 width="1400.000000pt" height="980.000000pt" viewBox="0 0 1400.000000 980.000000"
 preserveAspectRatio="xMidYMid meet">

<g transform="translate(0.000000,980.000000) scale(0.100000,-0.100000)"
fill="#000000" stroke="none">
<path d="M8695 9269 c-264 -33 -465 -264 -465 -534 0 -144 54 -271 159 -374
215 -213 543 -213 753 0 69 69 134 178 124 206 -3 8 -2 11 3 8 17 -10 33 106
28 195 -2 47 -12 108 -21 137 -20 63 -106 195 -123 189 -6 -3 -10 0 -8 7 9 24
-153 135 -177 121 -6 -4 -8 -3 -5 3 4 7 -18 17 -56 26 -83 21 -140 25 -212 16z
m221 -99 c32 -12 67 -22 76 -23 9 -1 14 -5 12 -9 -3 -4 -1 -8 5 -8 5 0 36 -24
68 -54 40 -37 70 -78 98 -132 l40 -79 0 -126 0 -125 -40 -80 c-21 -43 -38 -83
-37 -87 1 -5 -1 -6 -5 -4 -5 3 -29 -15 -53 -40 -69 -68 -173 -114 -273 -120
-204 -13 -367 79 -455 256 -34 69 -37 82 -40 180 -3 86 0 117 17 166 11 32 17
63 15 67 -3 5 0 7 8 6 7 -2 12 5 12 14 -1 10 2 16 6 13 4 -2 13 7 21 21 37 71
185 166 285 184 72 13 172 5 240 -20z"/>
<path d="M8655 9083 c-178 -64 -282 -239 -245 -411 13 -62 63 -162 80 -162 6
0 10 -6 10 -14 0 -20 113 -93 163 -107 189 -51 384 54 448 242 55 164 -27 351
-192 434 -71 37 -190 44 -264 18z m207 -43 c54 -15 131 -71 139 -100 13 -53
-47 -79 -92 -39 -35 30 -79 51 -95 45 -8 -3 -14 0 -14 6 0 7 -18 9 -50 6 -37
-4 -65 -15 -104 -42 -55 -37 -87 -45 -104 -23 -11 14 -22 78 -11 71 4 -2 20 6
36 19 33 28 66 47 102 58 38 11 150 10 193 -1z"/>
<path d="M2465 9263 c-46 -10 -145 -47 -145 -55 0 -4 -4 -7 -9 -5 -5 1 -37
-18 -72 -43 -97 -70 -160 -160 -205 -290 -28 -81 -25 -243 5 -329 38 -110 120
-218 211 -281 48 -33 50 -37 50 -102 l0 -58 270 0 270 0 0 63 0 62 60 45 c228
169 292 482 150 720 -60 99 -175 210 -202 194 -7 -4 -10 -4 -6 1 12 13 -46 43
-125 65 -67 19 -196 25 -252 13z"/>
<path d="M4466 9239 c-26 -17 -55 -42 -64 -55 -9 -14 -27 -37 -39 -52 -25 -30
-70 -119 -75 -148 -3 -18 6 -19 120 -22 l122 -3 0 156 c0 85 -4 155 -8 155 -5
0 -30 -14 -56 -31z"/>
<path d="M4620 9115 l0 -155 114 0 c63 0 117 4 121 10 7 11 -28 87 -71 156
-35 55 -87 105 -134 129 l-30 16 0 -156z"/>
<path d="M6679 9189 c-17 -60 -29 -83 -44 -89 -11 -4 -45 -17 -75 -30 -30 -12
-68 -27 -83 -33 -25 -10 -36 -7 -103 28 l-75 39 -57 -57 -57 -57 38 -73 c20
-40 37 -79 37 -85 0 -7 -10 -32 -21 -55 -12 -23 -29 -64 -39 -91 l-16 -50 -85
-26 -84 -26 0 -84 0 -84 78 -22 c44 -12 82 -26 87 -30 4 -5 13 -27 20 -49 7
-22 23 -60 36 -85 13 -25 24 -51 24 -58 0 -7 -16 -42 -36 -77 -19 -36 -31 -65
-27 -65 4 0 3 -4 -4 -8 -8 -5 7 -26 46 -65 l58 -59 71 36 c40 20 79 36 89 36
10 -1 59 -18 108 -39 l90 -38 24 -81 24 -82 83 0 83 0 21 73 c11 39 24 78 28
85 4 7 38 24 76 37 38 13 74 29 80 35 19 19 68 10 133 -26 l65 -37 58 58 59
58 -40 79 -39 78 20 45 c12 25 18 51 14 57 -4 7 -3 8 4 4 7 -4 15 8 22 31 15
57 19 60 108 88 l83 26 -3 82 -3 81 -72 22 c-72 22 -118 46 -107 57 3 3 -10
43 -30 89 l-36 83 40 76 39 75 -58 58 -58 58 -71 -36 c-39 -20 -78 -36 -85
-36 -8 0 -43 13 -78 29 -35 15 -76 31 -90 34 -23 6 -30 18 -53 92 l-27 85 -83
0 -83 0 -24 -81z m242 -235 c68 -20 145 -63 183 -103 16 -17 33 -28 38 -25 5
3 7 2 6 -3 -4 -11 27 -54 35 -48 4 3 5 2 3 -1 -2 -3 8 -31 24 -62 87 -177 59
-379 -73 -527 -165 -186 -458 -208 -654 -49 -123 100 -189 276 -163 440 26
171 155 323 319 375 72 23 208 25 282 3z"/>
<path d="M11059 9256 c-30 -7 -64 -16 -75 -21 -10 -4 -26 -9 -34 -11 -30 -6
-156 -75 -194 -107 -36 -29 -95 -86 -148 -143 -11 -12 -17 -27 -13 -33 3 -7 1
-10 -6 -9 -12 3 -103 -161 -94 -170 3 -3 1 -10 -4 -16 -20 -24 -41 -152 -41
-250 0 -166 45 -307 142 -440 57 -78 167 -182 192 -180 8 1 14 -3 13 -8 -1 -6
18 -23 43 -37 204 -122 479 -133 700 -29 116 55 282 191 265 219 -5 7 -4 10 2
6 24 -15 107 127 149 254 24 74 27 100 28 214 0 148 -13 210 -75 340 -64 136
-195 273 -327 343 -115 61 -205 85 -342 88 -78 2 -146 -2 -181 -10z m350 -105
c36 -11 69 -17 74 -14 6 3 7 1 4 -4 -4 -6 3 -13 16 -17 41 -10 142 -83 202
-147 33 -35 63 -63 68 -61 4 1 6 -1 6 -5 -4 -22 2 -33 14 -27 6 4 9 4 5 0 -3
-4 11 -44 32 -89 48 -102 64 -177 63 -292 -1 -112 -21 -195 -75 -305 -78 -160
-248 -297 -428 -346 -87 -24 -252 -24 -340 -1 -90 25 -202 82 -259 133 -27 24
-51 41 -55 39 -3 -3 -4 -2 -1 2 7 9 -26 44 -37 37 -4 -3 -7 -2 -6 3 5 16 -23
54 -35 47 -7 -4 -9 -4 -5 0 4 5 -3 25 -16 45 -87 138 -118 352 -76 514 25 96
42 134 101 223 100 151 256 248 459 288 56 11 226 -3 289 -23z"/>
<path d="M11105 9073 c-196 -53 -324 -154 -410 -324 -54 -106 -71 -272 -40
-389 68 -258 305 -440 570 -440 92 0 262 50 248 73 -4 6 -1 7 6 3 13 -9 74 28
129 78 51 46 124 147 118 163 -3 8 -2 12 3 9 13 -8 47 79 61 158 16 84 8 190
-20 270 -28 81 -89 188 -102 180 -6 -4 -8 -3 -5 3 9 14 -65 87 -130 129 -58
38 -150 77 -163 69 -5 -3 -10 0 -12 7 -4 12 -214 22 -253 11z m168 -162 c-3
-13 7 -25 42 -46 33 -19 52 -39 66 -68 23 -52 25 -99 4 -91 -8 4 -15 2 -15 -2
0 -5 -20 -10 -45 -11 -41 -2 -45 0 -45 22 0 28 -35 65 -62 65 -44 0 -62 -95
-29 -150 8 -14 31 -38 50 -55 124 -108 166 -177 165 -275 0 -83 -24 -126 -87
-159 -36 -18 -47 -29 -47 -47 0 -22 -4 -24 -54 -24 -51 0 -53 1 -49 24 4 19
-3 28 -38 47 -51 28 -86 84 -95 153 l-7 46 47 2 c25 0 51 1 58 2 7 1 15 -14
19 -32 8 -37 45 -82 68 -82 32 0 61 41 61 87 0 24 -5 43 -11 43 -5 0 -8 4 -5
9 5 8 -98 113 -119 122 -22 8 -85 103 -96 143 -27 99 14 212 87 238 25 9 34
18 34 35 0 21 4 23 54 23 48 0 54 -2 49 -19z"/>
<path d="M4253 9205 c-82 -38 -153 -87 -222 -154 -35 -34 -62 -63 -60 -65 2
-2 50 -6 107 -10 l102 -6 12 27 c25 65 69 152 93 187 14 21 24 40 23 42 -2 2
-27 -8 -55 -21z"/>
<path d="M4854 9185 c19 -24 37 -54 41 -65 4 -11 11 -17 17 -14 6 4 8 3 5 -3
-3 -5 5 -36 18 -69 l24 -59 103 4 c57 2 105 5 107 7 8 8 -72 84 -144 138 -56
41 -178 106 -201 106 -2 0 12 -20 30 -45z"/>
<path d="M3877 8842 c-36 -80 -58 -144 -52 -150 3 -3 1 -10 -4 -16 -5 -6 -12
-37 -16 -68 l-7 -58 155 0 155 0 7 78 c4 42 13 111 21 152 8 41 14 80 14 87 0
7 -29 14 -77 18 -43 3 -99 8 -124 11 l-46 5 -26 -59z"/>
<path d="M5107 8887 c-102 -8 -117 -12 -112 -26 10 -33 35 -218 35 -263 l0
-48 156 0 156 0 -6 48 c-15 101 -77 282 -102 293 -5 3 -62 1 -127 -4z"/>
<path d="M4753 8873 l-133 -4 0 -159 0 -160 160 0 c186 0 168 -18 145 150 -13
93 -32 184 -38 178 -1 -1 -62 -4 -134 -5z"/>
<path d="M4246 8861 c-7 -11 -33 -168 -41 -248 l-6 -63 166 0 165 0 0 160 0
160 -139 0 c-77 0 -142 -4 -145 -9z"/>
<path d="M3805 8449 c-9 -14 2 -91 26 -169 21 -71 70 -174 82 -173 4 0 60 4
126 8 l118 7 -13 56 c-8 31 -19 108 -25 170 l-12 112 -148 0 c-94 0 -150 -4
-154 -11z"/>
<path d="M4204 8413 c3 -27 8 -75 11 -108 4 -33 12 -85 19 -115 l12 -55 142
-3 142 -3 0 165 0 166 -166 0 -166 0 6 -47z"/>
<path d="M4620 8295 l0 -166 138 3 137 3 16 82 c9 46 20 119 24 163 l7 80
-161 0 -161 0 0 -165z"/>
<path d="M5036 8448 c-2 -7 -11 -71 -20 -143 -9 -71 -19 -142 -22 -156 l-6
-27 104 -7 c56 -3 111 -9 120 -11 40 -12 128 214 128 326 l0 30 -150 0 c-112
0 -152 -3 -154 -12z"/>
<path d="M9209 8292 l-51 -55 243 -243 c186 -186 246 -241 256 -232 7 5 10 15
6 21 -3 5 -2 7 4 4 5 -3 26 11 47 32 l36 37 -245 245 -245 245 -51 -54z"/>
<path d="M4285 8018 c14 -45 85 -164 121 -201 32 -34 105 -87 119 -87 3 0 5
70 5 155 l0 155 -126 0 c-125 0 -125 0 -119 -22z"/>
<path d="M4620 7889 c0 -134 2 -150 16 -145 9 3 20 6 25 6 15 0 130 121 124
130 -3 5 -1 10 4 12 10 3 71 122 71 138 0 6 -44 10 -120 10 l-120 0 0 -151z"/>
<path d="M4022 8021 l-53 -6 39 -44 c26 -30 43 -42 52 -36 8 5 11 4 7 -2 -10
-16 64 -73 156 -120 45 -24 85 -43 90 -43 4 0 -8 23 -27 50 -32 46 -65 111
-94 183 -11 25 -15 27 -64 25 -29 -1 -77 -4 -106 -7z"/>
<path d="M4954 8014 c-22 -61 -69 -153 -99 -195 -19 -27 -33 -49 -30 -49 17 0
145 65 188 96 73 52 127 105 120 117 -3 6 -1 7 4 4 10 -7 40 19 32 27 -2 2
-50 7 -106 11 -95 7 -103 6 -109 -11z"/>
<path d="M3150 5970 l0 -670 928 0 927 0 28 -40 c16 -23 33 -37 39 -34 7 4 8
2 4 -5 -5 -7 15 -40 51 -84 67 -83 132 -166 185 -239 75 -104 68 -187 68 830
l0 912 -1115 0 -1115 0 0 -670z m2029 436 c7 -8 11 -27 9 -43 l-3 -28 -915 -3
c-851 -2 -916 -1 -927 15 -17 22 -16 38 3 57 14 14 111 16 918 16 774 0 905
-2 915 -14z m0 -200 c6 -7 10 -29 9 -47 l-3 -34 -915 3 c-845 2 -916 3 -927
19 -17 22 -16 38 3 57 14 14 111 16 918 16 751 0 905 -2 915 -14z m-2 -197
c18 -16 17 -66 -3 -73 -9 -3 -422 -6 -919 -6 -965 0 -933 -2 -923 47 8 43 9
43 942 43 633 0 893 -4 903 -11z m7 -215 c11 -29 6 -53 -13 -64 -13 -7 -317
-10 -915 -10 -800 0 -896 2 -910 16 -19 18 -20 28 -6 55 10 19 31 19 924 19
824 0 914 -2 920 -16z m6 -229 c0 -11 -5 -26 -12 -33 -9 -9 -227 -12 -920 -12
l-908 0 -11 24 c-8 17 -8 29 0 45 l12 21 902 2 c970 3 937 5 937 -47z"/>
<path d="M8626 6624 c-10 -26 -7 -1794 3 -1794 5 0 23 19 40 43 35 50 115 153
188 244 29 36 50 69 47 74 -3 5 0 8 8 7 7 -2 12 5 12 14 -1 10 2 16 6 13 6 -4
39 33 65 73 1 1 419 2 928 2 l927 0 0 670 0 670 -1109 0 c-1002 0 -1109 -2
-1115 -16z m2036 -230 c9 -18 9 -30 1 -42 -9 -16 -83 -17 -912 -22 -496 -3
-911 -2 -922 2 -22 8 -26 57 -7 76 9 9 227 12 920 12 l908 0 12 -26z m0 -200
c9 -18 9 -30 1 -42 -9 -16 -84 -17 -918 -22 -745 -4 -911 -3 -922 8 -16 17
-17 54 -1 70 9 9 227 12 920 12 l908 0 12 -26z m-2 -195 c6 -11 10 -30 8 -42
l-3 -22 -924 0 -924 0 -8 23 c-6 17 -4 27 11 42 20 20 37 20 925 20 902 0 904
0 915 -21z m4 -214 c4 -14 2 -34 -4 -45 -11 -20 -22 -20 -922 -18 -1000 3
-940 -1 -924 61 l6 27 919 0 919 0 6 -25z m-3 -199 c8 -17 8 -29 0 -45 l-12
-21 -904 0 c-497 0 -910 3 -919 6 -19 7 -21 55 -4 72 9 9 227 12 920 12 l908
0 11 -24z"/>
<path d="M6675 6363 c-104 -23 -186 -69 -246 -138 -49 -56 -65 -84 -89 -154
-19 -56 -20 -84 -20 -397 l0 -336 28 6 c15 4 42 22 60 41 l32 35 0 174 0 175
473 4 c493 4 502 5 610 50 l37 16 0 -210 0 -209 33 -35 c17 -19 44 -37 60 -41
l27 -6 0 292 0 292 50 55 c81 88 149 255 150 366 l0 27 -592 -1 c-326 -1 -602
-3 -613 -6z"/>
<path d="M2000 6299 c-104 -17 -190 -41 -183 -52 3 -6 1 -7 -6 -3 -15 10 -69
-8 -168 -57 -47 -22 -80 -44 -76 -50 3 -6 1 -7 -5 -3 -21 13 -191 -113 -282
-210 -78 -84 -151 -184 -143 -197 3 -6 2 -7 -4 -4 -9 6 -82 -128 -117 -215
-84 -211 -102 -505 -43 -743 39 -158 127 -340 221 -458 48 -60 204 -217 216
-217 6 0 10 77 10 225 0 243 3 261 55 329 15 19 45 44 68 55 41 19 202 51 257
51 18 0 54 20 102 57 68 52 74 59 69 85 -3 15 -21 38 -41 53 -54 40 -107 114
-132 183 -15 42 -32 70 -50 84 -94 66 -103 245 -16 297 43 27 48 17 48 -91 0
-93 6 -102 45 -72 17 13 20 29 23 123 3 97 6 110 23 114 10 3 158 6 328 6
l309 2 4 -111 c3 -103 5 -113 27 -131 45 -37 51 -27 51 76 0 54 4 95 10 95 50
0 94 -66 93 -141 -1 -70 -20 -114 -66 -155 -23 -21 -42 -44 -43 -51 -1 -7 -15
-41 -32 -76 -32 -68 -92 -141 -134 -163 -21 -11 -28 -22 -28 -44 0 -33 1 -33
87 -95 38 -27 74 -45 90 -45 42 0 203 -31 239 -46 49 -21 90 -60 113 -108 19
-41 20 -63 21 -275 1 -127 5 -231 9 -231 16 0 101 82 95 91 -3 5 0 8 7 7 6 -2
45 35 86 82 183 210 293 513 293 807 l0 73 -217 2 -218 3 -3 428 c-2 350 -5
431 -16 443 -8 7 -49 38 -93 67 -147 101 -320 171 -498 202 -97 16 -294 18
-385 4z"/>
<path d="M11590 6291 c-174 -34 -314 -92 -470 -195 -122 -80 -109 -23 -112
-513 l-3 -428 -217 -3 -218 -2 0 -83 c0 -162 39 -346 108 -505 38 -87 127
-233 173 -283 13 -14 42 -45 64 -70 107 -117 295 -246 438 -301 250 -97 526
-113 785 -47 42 10 84 27 95 37 11 9 17 11 13 5 -5 -9 -2 -11 8 -7 9 3 13 10
10 15 -3 5 2 6 10 3 16 -6 142 54 212 100 21 14 56 38 78 52 35 23 202 186
234 228 49 63 111 164 147 242 85 179 116 322 116 532 0 148 -6 196 -47 347
-30 108 -130 318 -147 308 -7 -3 -9 -3 -5 2 11 11 -11 47 -24 39 -7 -4 -8 -3
-4 5 19 30 -247 303 -276 285 -6 -4 -8 -2 -5 3 9 15 -98 87 -114 78 -7 -5 -10
-4 -6 2 14 22 -180 105 -338 144 -118 30 -377 35 -505 10z m340 -601 c0 -21
85 -102 131 -126 42 -21 113 -43 192 -59 93 -19 88 -225 -7 -287 -20 -13 -36
-31 -36 -42 0 -46 -61 -146 -125 -204 -87 -80 -88 -101 -5 -161 35 -26 60 -51
60 -62 0 -10 -18 -82 -41 -160 -22 -78 -38 -144 -35 -146 7 -7 -22 -35 -32
-31 -4 2 -53 33 -109 71 -56 37 -104 67 -107 67 -4 0 -155 -101 -207 -139 -22
-16 -16 -29 -59 134 -18 66 -38 138 -45 160 -7 21 -11 45 -8 51 2 7 31 33 64
58 78 61 80 86 10 139 -59 44 -106 109 -132 183 -13 36 -34 69 -63 97 -62 59
-82 140 -52 210 22 53 42 63 157 76 186 20 327 72 399 145 36 36 50 44 50 26z"/>
<path d="M3790 3565 l0 -1595 3210 0 3210 0 0 1595 0 1595 -130 0 -130 0 0
-1470 0 -1470 -2950 0 -2950 0 0 1470 0 1470 -130 0 -130 0 0 -1595z"/>
<path d="M6300 4355 c-196 -30 -307 -53 -356 -77 -52 -24 -123 -90 -157 -144
-54 -87 -57 -116 -57 -524 l0 -376 78 -55 c703 -498 1681 -498 2385 0 l77 55
0 376 c0 418 -2 438 -65 536 -34 53 -116 122 -170 142 -45 18 -163 41 -333 66
l-154 23 -10 -26 c-5 -14 -15 -48 -23 -76 -51 -194 -129 -462 -136 -469 -4 -5
-46 17 -96 51 -48 33 -132 90 -185 126 l-98 67 -97 -67 c-54 -36 -137 -93
-185 -125 -48 -33 -91 -57 -96 -54 -5 3 -15 27 -21 53 -12 47 -94 341 -128
456 -9 32 -19 59 -22 61 -3 1 -71 -7 -151 -19z"/>
<path d="M3130 1855 c0 -13 20 -15 131 -15 100 0 130 3 127 13 -3 8 -41 13
-131 15 -109 2 -127 0 -127 -13z"/>
<path d="M10617 1863 c-19 -19 4 -23 123 -23 109 0 130 2 130 15 0 13 -20 15
-123 15 -68 0 -127 -3 -130 -7z"/>
<path d="M0 800 l0 -800 7000 0 7000 0 0 800 0 800 -7000 0 -7000 0 0 -800z"/>
</g>
</svg>
