<?xml version="1.0" standalone="no"?>
<!DOCTYPE svg PUBLIC "-//W3C//DTD SVG 20010904//EN"
 "http://www.w3.org/TR/2001/REC-SVG-20010904/DTD/svg10.dtd">
<svg version="1.0" xmlns="http://www.w3.org/2000/svg"
 width="5000.000000pt" height="5000.000000pt" viewBox="0 0 5000.000000 5000.000000"
 preserveAspectRatio="xMidYMid meet">

<g transform="translate(0.000000,5000.000000) scale(0.100000,-0.100000)"
fill="#000000" stroke="none">
<path d="M15220 28080 c-9 -6 -10 -10 -3 -10 6 0 15 5 18 10 8 12 4 12 -15 0z"/>
<path d="M14920 27900 c-9 -6 -10 -10 -3 -10 6 0 15 5 18 10 8 12 4 12 -15 0z"/>
<path d="M14840 27859 c0 -5 5 -7 10 -4 6 3 10 8 10 11 0 2 -4 4 -10 4 -5 0
-10 -5 -10 -11z"/>
<path d="M14580 27710 c-9 -6 -10 -10 -3 -10 6 0 15 5 18 10 8 12 4 12 -15 0z"/>
<path d="M14430 27630 c-9 -6 -10 -10 -3 -10 6 0 15 5 18 10 8 12 4 12 -15 0z"/>
<path d="M13865 27310 c-3 -5 -2 -10 4 -10 5 0 13 5 16 10 3 6 2 10 -4 10 -5
0 -13 -4 -16 -10z"/>
<path d="M13470 27080 c-8 -5 -10 -10 -5 -10 6 0 17 5 25 10 8 5 11 10 5 10
-5 0 -17 -5 -25 -10z"/>
<path d="M13285 26950 c-3 -6 1 -7 9 -4 18 7 21 14 7 14 -6 0 -13 -4 -16 -10z"/>
<path d="M13166 26833 c-6 -14 -5 -15 5 -6 7 7 10 15 7 18 -3 3 -9 -2 -12 -12z"/>
<path d="M13085 26750 c-3 -5 -1 -10 4 -10 6 0 11 5 11 10 0 6 -2 10 -4 10 -3
0 -8 -4 -11 -10z"/>
<path d="M13056 26714 c-23 -23 -20 -30 4 -9 11 10 20 20 20 22 0 7 -9 2 -24
-13z"/>
<path d="M12976 26603 c-6 -14 -5 -15 5 -6 7 7 10 15 7 18 -3 3 -9 -2 -12 -12z"/>
<path d="M12816 26305 c-3 -9 -6 -22 -5 -28 0 -7 5 -1 10 12 5 13 8 26 5 28
-2 2 -6 -3 -10 -12z"/>
<path d="M12581 25684 c0 -11 3 -14 6 -6 3 7 2 16 -1 19 -3 4 -6 -2 -5 -13z"/>
<path d="M12371 25154 c0 -11 3 -14 6 -6 3 7 2 16 -1 19 -3 4 -6 -2 -5 -13z"/>
<path d="M12331 25044 c0 -11 3 -14 6 -6 3 7 2 16 -1 19 -3 4 -6 -2 -5 -13z"/>
<path d="M12251 24844 c0 -11 3 -14 6 -6 3 7 2 16 -1 19 -3 4 -6 -2 -5 -13z"/>
<path d="M11290 22539 c-7 -11 -10 -23 -7 -25 2 -2 9 7 15 21 14 30 7 33 -8 4z"/>
<path d="M11087 22203 c-4 -3 -7 -11 -7 -17 0 -6 5 -5 12 2 6 6 9 14 7 17 -3
3 -9 2 -12 -2z"/>
<path d="M10895 21879 c-4 -6 -5 -12 -2 -15 2 -3 7 2 10 11 7 17 1 20 -8 4z"/>
<path d="M10555 21329 c-4 -6 -5 -12 -2 -15 2 -3 7 2 10 11 7 17 1 20 -8 4z"/>
<path d="M10526 21283 c-6 -14 -5 -15 5 -6 7 7 10 15 7 18 -3 3 -9 -2 -12 -12z"/>
<path d="M10505 21249 c-4 -6 -5 -12 -2 -15 2 -3 7 2 10 11 7 17 1 20 -8 4z"/>
<path d="M9365 20939 c-4 -6 -5 -12 -2 -15 2 -3 7 2 10 11 7 17 1 20 -8 4z"/>
<path d="M9391 20947 c2 -1 13 -9 24 -17 19 -14 19 -14 6 3 -7 9 -18 17 -24
17 -6 0 -8 -1 -6 -3z"/>
<path d="M10269 20863 c-13 -16 -12 -17 4 -4 9 7 17 15 17 17 0 8 -8 3 -21
-13z"/>
<path d="M9540 20842 c0 -16 32 -24 44 -11 8 9 8 10 -2 5 -7 -4 -19 -2 -27 4
-9 7 -15 8 -15 2z"/>
<path d="M9124 20618 c0 -10 1 -18 3 -18 1 0 7 8 12 18 7 13 6 19 -2 19 -7 0
-13 -9 -13 -19z"/>
<path d="M10112 20610 c-18 -29 -15 -38 4 -12 9 13 14 25 12 27 -2 2 -9 -5
-16 -15z"/>
<path d="M9964 20531 c7 -11 46 -35 46 -28 0 3 -12 12 -26 22 -15 9 -23 12
-20 6z"/>
<path d="M9016 20468 c3 -5 10 -6 15 -3 13 9 11 12 -6 12 -8 0 -12 -4 -9 -9z"/>
<path d="M8990 20461 c0 -6 4 -13 10 -16 6 -3 7 1 4 9 -7 18 -14 21 -14 7z"/>
<path d="M8850 20259 c0 -5 5 -7 10 -4 6 3 10 8 10 11 0 2 -4 4 -10 4 -5 0
-10 -5 -10 -11z"/>
<path d="M9300 20231 c-84 -27 -160 -99 -191 -181 -41 -109 -10 -248 73 -326
63 -60 113 -79 208 -79 73 0 92 4 136 27 28 15 70 48 92 73 126 144 81 378
-91 467 -45 23 -180 35 -227 19z m140 -231 c0 -5 -5 -20 -11 -34 -10 -22 -9
-28 12 -45 32 -25 16 -40 -21 -19 -27 15 -29 15 -51 -10 -27 -31 -39 -14 -15
23 15 22 14 25 -9 43 -14 11 -25 23 -25 26 0 10 38 7 45 -4 9 -15 23 -12 42
10 19 21 33 26 33 10z"/>
<path d="M7790 20155 c-12 -20 -27 -41 -34 -48 -7 -6 -27 -34 -46 -62 -18 -27
-37 -52 -40 -55 -3 -3 -23 -30 -43 -60 -33 -50 -47 -69 -107 -138 -11 -13 -20
-26 -20 -29 0 -5 -87 -128 -109 -155 -8 -9 -19 -14 -24 -11 -6 3 -7 1 -3 -5 8
-13 -8 -36 -301 -432 -55 -74 -142 -193 -193 -265 -51 -71 -124 -171 -162
-222 -37 -51 -68 -94 -68 -97 0 -4 -8 -15 -17 -25 -21 -23 -39 -47 -90 -119
-100 -140 -207 -277 -215 -274 -5 1 -7 -2 -3 -8 4 -6 -5 -24 -19 -41 -14 -17
-26 -34 -26 -37 0 -4 -10 -18 -23 -32 -13 -14 -38 -47 -57 -75 -19 -27 -38
-54 -42 -60 -4 -5 -35 -47 -68 -93 -33 -46 -65 -80 -70 -77 -6 3 -7 -1 -4 -9
4 -9 -1 -18 -10 -22 -9 -3 -16 -11 -16 -18 0 -6 -37 -61 -83 -122 -45 -61 -95
-130 -112 -154 -16 -25 -70 -99 -120 -166 -49 -67 -104 -141 -121 -165 -17
-24 -104 -143 -193 -264 -89 -121 -179 -245 -199 -275 -41 -61 -52 -71 -66
-63 -5 3 -6 1 -2 -6 4 -6 -19 -48 -55 -99 -79 -109 -232 -315 -240 -322 -3 -3
-18 -23 -32 -46 -14 -22 -31 -47 -39 -55 -7 -8 -28 -38 -47 -66 -18 -29 -36
-53 -40 -53 -3 0 -13 -13 -22 -28 -37 -65 -213 -291 -222 -285 -6 3 -7 1 -3
-6 9 -14 -41 -84 -55 -76 -5 3 -6 0 -3 -8 3 -8 -2 -20 -11 -27 -8 -7 -15 -16
-15 -21 0 -5 -7 -17 -15 -26 -8 -10 -37 -49 -65 -88 -28 -38 -56 -77 -63 -85
-7 -8 -42 -55 -77 -105 -36 -49 -68 -91 -72 -93 -5 -2 -8 -10 -8 -17 0 -7 -4
-15 -8 -17 -8 -3 -280 -371 -372 -503 -56 -80 -112 -157 -259 -355 -64 -85
-126 -171 -140 -190 -13 -19 -27 -37 -31 -40 -4 -3 -20 -25 -35 -50 -15 -25
-34 -52 -41 -60 -31 -34 -154 -209 -154 -219 0 -6 -4 -11 -8 -11 -5 0 -23 -20
-42 -45 -18 -24 -38 -41 -43 -38 -6 3 -7 1 -3 -5 6 -10 -16 -56 -34 -72 -3 -3
-17 -21 -30 -40 -13 -19 -30 -41 -38 -49 -7 -8 -21 -26 -30 -40 -39 -60 -80
-109 -88 -103 -4 4 -4 2 -1 -5 4 -6 1 -17 -6 -25 -7 -7 -43 -56 -81 -108 -37
-52 -72 -102 -79 -110 -7 -8 -43 -58 -81 -110 -38 -52 -74 -100 -80 -105 -6
-6 -17 -21 -25 -35 -7 -13 -51 -74 -96 -134 -45 -61 -90 -124 -101 -141 -10
-16 -21 -32 -25 -35 -3 -3 -19 -24 -35 -47 -16 -22 -94 -129 -174 -238 -80
-108 -172 -233 -205 -279 -33 -46 -95 -131 -137 -189 -43 -58 -78 -110 -78
-116 0 -6 -4 -11 -8 -11 -5 0 -23 -20 -42 -45 -18 -24 -38 -41 -43 -38 -6 3
-7 1 -3 -6 9 -14 -32 -74 -45 -66 -5 4 -7 0 -4 -7 6 -16 -160 -240 -170 -230
-5 4 -5 2 -2 -5 4 -6 1 -17 -6 -25 -7 -7 -44 -56 -81 -108 -37 -52 -76 -106
-86 -120 -17 -23 -45 -60 -127 -172 -15 -21 -30 -38 -35 -38 -4 0 -8 -5 -8
-11 0 -9 -101 -152 -231 -329 -10 -14 -40 -54 -66 -90 -50 -69 -182 -248 -196
-265 -4 -5 -35 -48 -69 -95 -33 -47 -65 -86 -69 -88 -5 -2 -9 -8 -9 -13 0 -6
-31 -53 -70 -105 l-70 -94 0 -4745 0 -4745 1332 0 c732 0 1328 3 1325 6 -13
13 105 168 119 156 4 -4 4 -2 0 5 -11 20 38 88 56 77 4 -3 5 1 2 9 -3 8 2 20
11 27 8 7 15 17 15 22 0 6 17 31 38 57 21 25 78 101 125 168 48 67 93 128 100
135 7 7 28 36 47 63 30 44 70 100 115 160 8 11 46 64 85 118 40 53 76 97 81
97 5 0 9 6 9 13 0 21 61 98 72 90 7 -3 8 -1 4 5 -4 6 14 38 39 71 25 32 45 62
45 66 0 4 12 22 28 40 25 31 73 95 192 260 127 176 142 195 152 189 7 -4 8 -2
4 4 -8 13 161 248 175 244 6 -1 8 1 5 6 -3 5 16 37 42 72 53 71 74 102 97 143
11 18 22 27 31 23 9 -3 12 -1 9 4 -5 9 73 132 95 150 3 3 45 59 92 125 115
160 144 196 153 187 5 -4 5 -1 1 5 -6 11 25 62 62 101 6 8 17 23 23 35 7 12
18 29 25 37 8 8 46 59 85 113 39 53 75 97 80 97 5 0 9 7 9 16 0 9 5 12 12 8 7
-4 8 -3 4 5 -4 6 2 24 14 39 12 15 37 48 56 75 19 26 39 45 45 42 5 -3 6 0 3
8 -3 8 2 20 11 27 8 7 15 17 15 22 0 6 12 25 28 43 15 17 34 42 42 54 8 13 36
50 61 84 113 153 156 213 162 230 4 11 12 15 18 11 7 -4 9 -3 6 3 -8 13 17 36
28 25 5 -4 5 -1 1 6 -9 16 12 44 27 35 6 -3 7 -1 3 5 -9 15 63 114 76 105 7
-3 8 -1 4 5 -4 6 35 67 86 137 97 131 107 146 147 209 15 23 29 35 38 32 8 -3
11 -1 8 4 -10 16 70 128 88 122 5 -1 7 3 5 10 -3 7 11 34 31 60 20 25 74 98
120 162 46 63 89 112 94 109 6 -3 7 -1 3 5 -6 10 17 45 108 167 124 165 189
255 228 312 14 22 33 46 40 54 8 8 23 29 33 47 11 17 23 32 27 32 4 0 8 6 8
13 0 18 45 59 54 50 4 -4 4 -1 1 8 -3 8 1 23 10 34 8 11 28 38 45 60 16 22 33
45 38 50 4 6 23 33 42 60 18 28 36 52 40 55 3 3 22 27 41 55 28 41 81 113 117
160 4 6 18 25 31 43 12 18 27 29 33 26 7 -4 8 -2 4 4 -9 15 122 194 136 186 7
-5 8 -2 3 5 -4 8 5 27 22 49 16 20 46 62 66 92 21 30 50 71 65 92 15 20 80
108 145 197 89 121 122 159 135 155 13 -5 14 -4 3 4 -14 10 4 37 223 332 55
74 117 160 138 190 47 69 88 116 99 113 4 -2 6 3 3 10 -2 7 3 21 11 32 8 11
43 59 78 106 34 48 72 99 84 115 68 90 127 172 139 197 9 17 20 25 27 21 7 -4
9 -4 5 1 -10 11 42 76 55 68 5 -3 7 -1 3 5 -8 13 23 58 213 312 31 41 73 100
94 130 21 30 50 72 65 92 15 20 80 109 145 197 90 123 121 159 135 155 13 -5
14 -4 3 4 -13 10 -3 26 159 247 20 28 58 79 84 115 67 92 92 120 101 112 5 -4
5 -1 1 6 -5 8 18 47 61 105 37 51 70 94 73 97 3 3 21 28 39 55 19 28 73 102
121 165 47 63 101 138 119 167 19 29 38 50 43 47 5 -3 7 -2 6 3 -5 15 36 73
49 69 6 -3 10 0 7 7 -2 7 26 53 63 102 101 135 194 262 242 330 23 33 56 79
74 102 18 24 68 92 111 153 44 60 83 110 88 110 4 0 8 5 8 11 0 20 41 69 52
63 6 -4 8 -3 5 3 -9 14 42 85 55 77 7 -4 8 -3 4 4 -9 14 71 125 84 117 6 -3 7
0 5 7 -5 12 38 77 108 163 14 17 35 48 48 70 26 45 39 56 53 48 5 -3 6 -1 2 6
-6 10 31 67 136 206 5 6 41 55 80 110 40 55 78 107 85 115 7 8 30 40 51 70 27
39 44 54 58 52 14 -2 15 0 6 6 -10 7 -9 16 8 45 12 21 26 34 31 31 5 -3 8 0 7
8 -2 7 2 12 9 11 7 -2 10 3 8 10 -6 17 21 51 34 42 6 -3 9 0 6 7 -3 7 25 54
62 103 132 176 208 281 238 325 17 25 68 97 115 160 47 63 96 130 109 148 18
26 26 31 33 20 7 -9 8 -7 3 8 -3 12 0 28 7 35 8 8 24 29 37 47 12 18 27 29 33
26 6 -4 8 -2 5 3 -4 6 10 35 31 64 53 76 187 257 220 299 15 19 39 53 52 75
25 42 40 56 51 49 4 -2 6 2 5 10 -1 14 88 140 371 524 13 18 29 29 35 26 6 -4
8 -2 4 4 -7 11 31 82 43 82 5 0 16 16 27 35 10 20 24 33 31 31 7 -3 10 0 7 7
-5 13 83 137 97 137 5 0 9 6 9 13 0 21 61 98 72 90 7 -3 8 -1 4 5 -4 6 13 37
37 69 24 32 65 90 92 128 26 39 67 95 90 125 91 120 165 223 165 232 0 5 5 6
10 3 6 -3 10 -1 10 5 0 21 41 70 52 64 7 -4 8 -2 4 4 -4 7 46 84 115 179 149
204 171 230 190 225 11 -3 11 -2 1 6 -7 5 -12 15 -10 22 2 7 -17 27 -42 45
-25 18 -44 38 -42 45 1 6 -2 9 -8 5 -14 -9 -42 14 -33 28 3 6 1 7 -5 3 -15 -9
-304 202 -296 216 5 7 2 8 -5 3 -8 -4 -28 5 -51 24 -21 17 -42 31 -45 31 -4 0
-20 10 -35 23 -15 12 -39 30 -53 40 -14 11 -24 24 -23 30 2 7 1 9 -1 5 -11
-20 -47 1 -216 125 -348 255 -704 515 -1042 762 -187 136 -386 282 -443 324
-57 42 -141 103 -187 136 -46 33 -191 138 -322 234 -268 197 -459 336 -613
448 -58 42 -127 93 -155 113 -54 40 -576 422 -795 582 -362 263 -610 445 -661
482 -30 23 -155 113 -277 201 -172 124 -221 164 -217 178 2 11 1 16 -2 13 -7
-6 -74 32 -85 48 -4 6 -4 14 -1 20 3 5 1 6 -5 2 -10 -6 -238 146 -262 174 -3
3 -39 30 -80 60 -41 30 -77 57 -80 61 -3 3 -23 17 -45 31 -22 14 -51 35 -64
47 -33 29 -46 27 -71 -14z m340 -1496 c0 -11 -11 -35 -25 -53 -14 -18 -25 -37
-25 -43 0 -6 18 -23 40 -38 42 -29 54 -65 22 -65 -10 0 -33 11 -52 25 -19 14
-39 25 -46 25 -6 0 -24 -18 -39 -40 -29 -42 -57 -49 -63 -17 -2 9 11 35 28 57
l31 40 -45 32 c-25 17 -46 38 -46 45 0 26 31 25 70 -1 22 -14 44 -26 49 -26 5
0 22 18 38 40 31 43 63 53 63 19z m-740 -1014 c0 -8 -11 -31 -25 -51 -14 -20
-25 -40 -25 -45 0 -4 18 -22 40 -39 70 -55 42 -93 -31 -41 -23 17 -45 31 -48
31 -3 0 -19 -18 -34 -40 -30 -42 -67 -54 -67 -22 1 9 14 35 29 57 l28 39 -43
34 c-76 57 -48 96 30 41 l46 -33 17 24 c44 63 83 84 83 45z m-744 -1009 c3 -8
-8 -35 -25 -60 l-31 -45 45 -32 c25 -18 45 -39 45 -46 0 -27 -32 -25 -75 5
l-43 30 -37 -45 c-20 -24 -42 -42 -48 -40 -22 7 -19 38 7 72 14 18 26 38 26
43 0 5 -18 22 -40 37 -44 30 -54 65 -19 65 11 0 35 -11 53 -25 18 -14 37 -25
42 -25 5 0 22 18 38 40 31 42 53 50 62 26z"/>
<path d="M8745 20140 c-3 -5 -1 -10 4 -10 6 0 11 5 11 10 0 6 -2 10 -4 10 -3
0 -8 -4 -11 -10z"/>
<path d="M28673 20100 c-168 -44 -293 -149 -383 -321 -69 -132 -85 -208 -85
-404 0 -195 17 -291 86 -493 50 -145 103 -248 171 -331 l51 -64 -25 -21 c-14
-12 -58 -48 -99 -82 -160 -132 -423 -309 -656 -443 -51 -29 -97 -59 -103 -66
-15 -18 4 -55 29 -55 19 0 321 178 456 270 124 83 256 183 360 270 91 77 117
91 130 71 8 -14 123 -49 185 -56 32 -3 89 0 137 9 180 32 337 145 437 317 l27
47 103 -53 c118 -59 218 -89 368 -109 117 -15 129 -20 176 -69 l33 -34 -68
-49 c-172 -123 -295 -296 -338 -477 -49 -209 39 -337 272 -394 96 -23 272 -23
339 0 134 47 193 166 165 334 -26 151 -104 340 -202 486 -42 63 -50 80 -38 88
32 20 190 72 279 92 139 32 524 31 758 -1 199 -27 224 -28 215 -7 -3 9 2 22
13 30 18 13 18 14 -6 19 -83 20 -384 48 -555 53 -295 8 -495 -21 -685 -101
l-85 -36 -51 54 c-58 61 -81 70 -214 86 -163 21 -308 73 -454 163 -22 14 -46
23 -53 20 -8 -3 -26 -29 -40 -57 -79 -157 -200 -268 -344 -316 -53 -18 -80
-21 -159 -18 -87 4 -180 28 -180 47 0 3 32 40 71 81 296 315 480 653 555 1019
32 158 37 328 10 380 -37 72 -97 101 -253 127 -122 19 -262 17 -350 -6z m307
-60 c229 -28 266 -75 234 -303 -45 -330 -159 -602 -372 -887 -68 -92 -212
-255 -251 -285 l-25 -19 -43 48 c-89 98 -166 278 -218 511 -75 332 -20 610
155 785 136 136 282 179 520 150z m1190 -1688 c62 -92 140 -250 174 -352 36
-104 41 -234 13 -287 -36 -67 -104 -93 -242 -93 -214 1 -354 67 -386 183 -32
117 74 351 223 494 44 43 150 122 163 123 6 0 30 -31 55 -68z"/>
<path d="M8650 19965 c-7 -9 -11 -17 -9 -20 3 -2 10 5 17 15 14 24 10 26 -8 5z"/>
<path d="M8595 19894 c-9 -14 -15 -27 -13 -30 2 -2 12 10 22 26 21 37 15 40
-9 4z"/>
<path d="M37515 19840 c-3 -6 1 -7 9 -4 18 7 21 14 7 14 -6 0 -13 -4 -16 -10z"/>
<path d="M8546 19828 c3 -5 10 -6 15 -3 13 9 11 12 -6 12 -8 0 -12 -4 -9 -9z"/>
<path d="M8526 19793 c-6 -14 -5 -15 5 -6 7 7 10 15 7 18 -3 3 -9 -2 -12 -12z"/>
<path d="M8486 19748 c3 -5 10 -6 15 -3 13 9 11 12 -6 12 -8 0 -12 -4 -9 -9z"/>
<path d="M36395 19340 c-3 -6 1 -7 9 -4 18 7 21 14 7 14 -6 0 -13 -4 -16 -10z"/>
<path d="M35945 19150 c-3 -5 -2 -10 4 -10 5 0 13 5 16 10 3 6 2 10 -4 10 -5
0 -13 -4 -16 -10z"/>
<path d="M39490 19156 c0 -2 7 -7 16 -10 8 -3 12 -2 9 4 -6 10 -25 14 -25 6z"/>
<path d="M35620 18990 c-9 -6 -10 -10 -3 -10 6 0 15 5 18 10 8 12 4 12 -15 0z"/>
<path d="M15099 18743 l-24 -28 28 24 c25 23 32 31 24 31 -2 0 -14 -12 -28
-27z"/>
<path d="M35066 18555 c-11 -8 -17 -17 -14 -20 2 -3 13 4 23 15 21 23 18 25
-9 5z"/>
<path d="M31796 18420 c-20 -43 -36 -88 -36 -98 0 -39 371 -349 800 -668 311
-232 452 -334 665 -482 28 -19 68 -52 89 -73 21 -21 54 -44 72 -51 19 -7 34
-16 34 -20 0 -4 7 -8 16 -8 9 0 28 -7 42 -15 15 -8 72 -35 127 -61 208 -96
245 -116 239 -126 -11 -17 50 19 71 43 32 35 160 116 218 136 75 26 218 24
322 -6 91 -25 260 -103 332 -152 67 -46 146 -122 206 -199 86 -109 297 -337
459 -495 147 -144 157 -152 246 -190 50 -22 92 -43 92 -47 0 -5 5 -8 10 -8 13
0 288 -125 420 -191 148 -73 228 -109 245 -109 8 0 15 -4 15 -9 0 -4 28 -21
63 -36 34 -15 114 -52 177 -83 63 -30 142 -67 175 -82 33 -15 112 -52 175 -83
63 -30 171 -82 240 -114 69 -33 148 -70 175 -83 28 -12 110 -51 184 -86 73
-35 137 -64 142 -64 5 0 9 -4 9 -10 0 -5 8 -10 18 -10 10 0 26 -6 37 -13 11
-8 43 -22 70 -32 28 -11 52 -21 55 -24 6 -7 47 -28 264 -131 92 -44 171 -80
175 -80 19 -1 119 -59 113 -65 -4 -5 -2 -5 5 -1 7 4 39 -7 73 -24 33 -17 83
-39 111 -50 53 -21 430 -198 689 -322 80 -39 192 -92 250 -118 92 -42 202 -93
565 -265 50 -23 140 -66 200 -95 61 -29 146 -69 190 -90 44 -20 330 -155 635
-300 305 -144 606 -286 667 -315 l113 -53 -21 -50 -21 -50 -51 23 c-29 13
-149 69 -267 125 -118 56 -251 119 -295 140 -44 21 -296 140 -560 265 -264
125 -511 242 -550 260 -38 18 -119 56 -180 85 -60 29 -141 67 -180 85 -61 28
-423 200 -864 411 -74 35 -139 64 -145 64 -13 0 -66 -101 -66 -124 0 -21 124
-150 177 -184 41 -26 197 -102 538 -262 175 -82 569 -268 725 -342 122 -58
442 -210 580 -275 52 -25 172 -81 265 -125 94 -44 260 -123 370 -175 110 -52
299 -141 420 -199 121 -57 241 -108 266 -112 91 -17 193 9 252 66 16 15 42 53
58 85 16 31 31 57 33 57 2 0 35 -15 72 -32 56 -27 84 -33 150 -36 95 -5 146
13 211 72 l40 36 164 -79 c308 -148 306 -147 353 -110 15 12 38 45 51 73 12
28 49 107 82 176 33 69 66 139 73 157 8 17 17 30 21 28 3 -3 2 16 -2 41 -5 26
-6 51 -2 57 3 6 1 7 -6 3 -6 -4 -35 4 -64 18 -29 13 -129 61 -221 105 -93 45
-172 81 -177 81 -5 0 -9 30 -9 68 0 155 -52 221 -258 322 -78 38 -144 70 -146
70 -2 0 -98 44 -213 99 -326 154 -570 270 -668 316 -125 59 -250 118 -385 182
-63 31 -142 68 -175 83 -153 72 -244 115 -430 203 -484 229 -598 283 -735 347
-80 37 -206 97 -280 133 -74 36 -245 117 -380 180 -135 63 -263 125 -285 136
-22 12 -94 46 -160 77 -293 137 -411 192 -574 270 -95 46 -175 84 -177 84 -2
0 -70 32 -151 71 -82 39 -195 94 -253 121 -58 28 -157 75 -220 105 -63 31
-167 79 -230 108 -127 58 -746 350 -990 467 -85 41 -218 104 -295 141 -430
202 -538 252 -611 288 l-82 39 -83 -40 c-126 -60 -222 -82 -359 -82 -85 0
-136 6 -193 21 -281 74 -518 226 -562 360 -22 67 -16 160 14 218 35 69 32 75
-71 123 -96 45 -275 128 -340 158 -21 9 -38 20 -38 25 0 4 -8 7 -18 7 -10 0
-26 6 -37 14 -11 7 -33 16 -49 20 -24 6 -27 9 -15 17 11 8 9 9 -7 4 -22 -6
-47 -1 -174 35 -154 44 -266 72 -305 77 -22 3 -105 22 -185 44 -490 129 -1153
269 -1279 269 -38 0 -38 -1 -75 -80z"/>
<path d="M40370 18476 c0 -2 7 -7 16 -10 8 -3 12 -2 9 4 -6 10 -25 14 -25 6z"/>
<path d="M34876 18373 c-6 -14 -5 -15 5 -6 7 7 10 15 7 18 -3 3 -9 -2 -12 -12z"/>
<path d="M40620 18300 c-8 -5 -10 -10 -5 -10 6 0 17 5 25 10 8 5 11 10 5 10
-5 0 -17 -5 -25 -10z"/>
<path d="M34726 18213 c-6 -14 -5 -15 5 -6 7 7 10 15 7 18 -3 3 -9 -2 -12 -12z"/>
<path d="M33318 18203 c7 -3 16 -2 19 1 4 3 -2 6 -13 5 -11 0 -14 -3 -6 -6z"/>
<path d="M41418 17903 c7 -3 16 -2 19 1 4 3 -2 6 -13 5 -11 0 -14 -3 -6 -6z"/>
<path d="M42168 17823 c7 -3 16 -2 19 1 4 3 -2 6 -13 5 -11 0 -14 -3 -6 -6z"/>
<path d="M13985 17601 c-3 -5 -2 -12 3 -15 5 -3 9 1 9 9 0 17 -3 19 -12 6z"/>
<path d="M14015 17570 c3 -5 11 -10 16 -10 6 0 7 5 4 10 -3 6 -11 10 -16 10
-6 0 -7 -4 -4 -10z"/>
<path d="M14170 17455 c7 -9 15 -13 17 -11 7 7 -7 26 -19 26 -6 0 -6 -6 2 -15z"/>
<path d="M14200 17437 c0 -3 12 -12 26 -22 15 -9 23 -12 20 -6 -7 11 -46 35
-46 28z"/>
<path d="M14279 17313 c-13 -16 -12 -17 4 -4 9 7 17 15 17 17 0 8 -8 3 -21
-13z"/>
<path d="M14145 17134 c-9 -15 -12 -23 -6 -20 11 7 35 46 28 46 -3 0 -12 -12
-22 -26z"/>
<path d="M14120 17059 c0 -5 5 -7 10 -4 6 3 10 8 10 11 0 2 -4 4 -10 4 -5 0
-10 -5 -10 -11z"/>
<path d="M14057 17013 c-4 -3 -7 -11 -7 -17 0 -6 5 -5 12 2 6 6 9 14 7 17 -3
3 -9 2 -12 -2z"/>
<path d="M14020 16960 c0 -5 5 -10 11 -10 5 0 7 5 4 10 -3 6 -8 10 -11 10 -2
0 -4 -4 -4 -10z"/>
<path d="M14035 16920 c-3 -5 -1 -10 4 -10 6 0 11 5 11 10 0 6 -2 10 -4 10 -3
0 -8 -4 -11 -10z"/>
<path d="M13893 16788 c-20 -26 -26 -41 -15 -34 12 7 36 46 29 46 -3 0 -9 -6
-14 -12z"/>
<path d="M33802 16770 c-18 -29 -15 -38 4 -12 9 13 14 25 12 27 -2 2 -9 -5
-16 -15z"/>
<path d="M33766 16731 c4 -16 3 -21 -5 -17 -7 5 -8 1 -4 -10 5 -15 7 -15 15 0
6 10 5 23 -2 34 -9 14 -10 13 -4 -7z"/>
<path d="M13826 16686 c5 -13 4 -17 -4 -12 -8 5 -10 2 -5 -10 6 -15 7 -15 16
1 6 11 5 21 -3 28 -8 9 -9 7 -4 -7z"/>
<path d="M33740 16665 c-7 -9 -11 -17 -9 -20 3 -2 10 5 17 15 14 24 10 26 -8
5z"/>
<path d="M13729 16563 c-13 -17 -13 -17 5 -3 18 14 19 13 12 -5 -6 -16 -5 -18
5 -7 9 8 10 15 3 22 -8 8 -15 5 -25 -7z"/>
<path d="M13705 16529 c-4 -6 -5 -12 -2 -15 2 -3 7 2 10 11 7 17 1 20 -8 4z"/>
<path d="M13669 16483 c-12 -16 -12 -17 2 -6 9 7 20 9 24 5 5 -4 5 -1 1 6 -9
16 -11 15 -27 -5z"/>
<path d="M33691 16374 c0 -11 3 -14 6 -6 3 7 2 16 -1 19 -3 4 -6 -2 -5 -13z"/>
<path d="M13580 16360 c-6 -11 -8 -20 -6 -20 3 0 10 9 16 20 6 11 8 20 6 20
-3 0 -10 -9 -16 -20z"/>
<path d="M13500 16250 c-6 -11 -8 -20 -6 -20 3 0 10 9 16 20 6 11 8 20 6 20
-3 0 -10 -9 -16 -20z"/>
<path d="M43101 16224 c0 -11 3 -14 6 -6 3 7 2 16 -1 19 -3 4 -6 -2 -5 -13z"/>
<path d="M33924 15792 c-1 -15 1 -21 3 -14 3 6 9 9 15 6 6 -4 5 2 -1 15 -15
27 -16 27 -17 -7z"/>
<path d="M43181 15664 c0 -11 3 -14 6 -6 3 7 2 16 -1 19 -3 4 -6 -2 -5 -13z"/>
<path d="M34024 15610 c0 -13 4 -16 10 -10 7 7 7 13 0 20 -6 6 -10 3 -10 -10z"/>
<path d="M43236 15265 c4 -8 8 -15 10 -15 2 0 4 7 4 15 0 8 -4 15 -10 15 -5 0
-7 -7 -4 -15z"/>
<path d="M36101 15084 c0 -11 3 -14 6 -6 3 7 2 16 -1 19 -3 4 -6 -2 -5 -13z"/>
<path d="M34330 14106 c0 -2 7 -9 15 -16 13 -11 14 -10 9 4 -5 14 -24 23 -24
12z"/>
<path d="M34400 14026 c0 -2 8 -10 18 -17 15 -13 16 -12 3 4 -13 16 -21 21
-21 13z"/>
<path d="M34445 13970 c3 -5 8 -10 11 -10 2 0 4 5 4 10 0 6 -5 10 -11 10 -5 0
-7 -4 -4 -10z"/>
<path d="M12845 13949 c-4 -6 -5 -12 -2 -15 2 -3 7 2 10 11 7 17 1 20 -8 4z"/>
<path d="M34582 13820 c12 -16 26 -30 32 -30 5 0 -3 14 -19 30 -16 17 -30 30
-32 30 -2 0 6 -13 19 -30z"/>
<path d="M37490 13830 c8 -5 20 -10 25 -10 6 0 3 5 -5 10 -8 5 -19 10 -25 10
-5 0 -3 -5 5 -10z"/>
<path d="M43621 13724 c0 -11 3 -14 6 -6 3 7 2 16 -1 19 -3 4 -6 -2 -5 -13z"/>
<path d="M34890 13446 c0 -2 7 -7 16 -10 8 -3 12 -2 9 4 -6 10 -25 14 -25 6z"/>
<path d="M43718 13183 c7 -3 16 -2 19 1 4 3 -2 6 -13 5 -11 0 -14 -3 -6 -6z"/>
<path d="M35200 13061 c0 -10 19 -25 25 -20 1 2 -3 10 -11 17 -8 7 -14 8 -14
3z"/>
<path d="M35450 12741 c0 -6 4 -13 10 -16 6 -3 7 1 4 9 -7 18 -14 21 -14 7z"/>
<path d="M35540 12610 c0 -5 5 -10 11 -10 5 0 7 5 4 10 -3 6 -8 10 -11 10 -2
0 -4 -4 -4 -10z"/>
<path d="M36015 11970 c3 -5 8 -10 11 -10 2 0 4 5 4 10 0 6 -5 10 -11 10 -5 0
-7 -4 -4 -10z"/>
<path d="M11333 11878 c-15 -20 -25 -38 -20 -38 3 0 12 11 21 25 17 26 16 35
-1 13z"/>
<path d="M36130 11810 c0 -5 5 -10 11 -10 5 0 7 5 4 10 -3 6 -8 10 -11 10 -2
0 -4 -4 -4 -10z"/>
<path d="M36255 11650 c3 -5 8 -10 11 -10 2 0 4 5 4 10 0 6 -5 10 -11 10 -5 0
-7 -4 -4 -10z"/>
<path d="M44814 11584 c-18 -14 -18 -15 4 -4 12 6 22 13 22 15 0 8 -5 6 -26
-11z"/>
<path d="M44649 11463 c-13 -17 -13 -17 6 -3 11 8 22 16 24 17 2 2 0 3 -6 3
-6 0 -17 -8 -24 -17z"/>
<path d="M44970 11455 c7 -9 15 -13 17 -11 7 7 -7 26 -19 26 -6 0 -6 -6 2 -15z"/>
<path d="M44990 11426 c0 -2 8 -10 18 -17 15 -13 16 -12 3 4 -13 16 -21 21
-21 13z"/>
<path d="M44525 11380 c-3 -5 -2 -10 4 -10 5 0 13 5 16 10 3 6 2 10 -4 10 -5
0 -13 -4 -16 -10z"/>
<path d="M44486 11345 c-11 -8 -16 -15 -10 -15 5 0 18 7 28 15 11 8 16 15 10
15 -5 0 -18 -7 -28 -15z"/>
<path d="M44339 11233 c-13 -16 -12 -17 4 -4 9 7 17 15 17 17 0 8 -8 3 -21
-13z"/>
<path d="M36647 11209 c7 -7 15 -10 18 -7 3 3 -2 9 -12 12 -14 6 -15 5 -6 -5z"/>
<path d="M45185 11180 c1 -17 4 -33 7 -36 3 -3 5 8 4 25 -1 16 -4 32 -7 35 -3
4 -5 -7 -4 -24z"/>
<path d="M44230 11160 c-8 -5 -12 -12 -9 -15 4 -3 12 1 19 10 14 17 11 19 -10
5z"/>
<path d="M10840 11139 c0 -5 5 -7 10 -4 6 3 10 8 10 11 0 2 -4 4 -10 4 -5 0
-10 -5 -10 -11z"/>
<path d="M45305 11020 c-3 -5 -2 -18 4 -27 7 -14 9 -12 8 10 -2 30 -3 31 -12
17z"/>
<path d="M36980 10970 c8 -5 20 -10 25 -10 6 0 3 5 -5 10 -8 5 -19 10 -25 10
-5 0 -3 -5 5 -10z"/>
<path d="M44763 10866 c-189 -62 -275 -264 -189 -441 93 -190 373 -223 512
-61 103 120 97 309 -14 421 -75 77 -213 113 -309 81z m71 -251 c17 -25 17 -25
46 -8 38 22 52 8 20 -20 -24 -21 -25 -24 -11 -49 21 -36 7 -47 -23 -19 -23 22
-25 22 -49 6 -34 -22 -43 -4 -12 25 22 21 23 25 10 44 -17 23 -20 46 -6 46 5
0 16 -11 25 -25z"/>
<path d="M46438 10813 c-1 -5 -32 -28 -68 -52 -36 -25 -67 -47 -70 -51 -3 -3
-45 -34 -95 -70 -49 -35 -117 -85 -150 -110 -33 -25 -77 -56 -97 -70 -21 -14
-38 -28 -38 -32 0 -5 -5 -8 -11 -8 -5 0 -33 -18 -62 -39 -36 -28 -54 -36 -59
-28 -5 7 -7 3 -6 -11 3 -20 -30 -48 -222 -189 -310 -226 -754 -551 -880 -643
-127 -93 -877 -640 -1120 -818 -96 -71 -227 -166 -290 -212 -63 -45 -137 -100
-165 -120 -27 -21 -320 -234 -650 -475 -330 -241 -634 -463 -676 -494 -804
-588 -1043 -761 -1056 -761 -8 0 -27 -9 -41 -21 -21 -16 -201 -149 -267 -197
-6 -4 -45 -33 -88 -65 -43 -32 -83 -55 -89 -51 -6 4 -8 3 -5 -3 4 -6 -36 -41
-88 -79 -52 -38 -95 -73 -95 -78 0 -4 12 -23 28 -42 47 -57 76 -96 107 -143
29 -45 103 -146 238 -326 37 -49 65 -95 63 -102 -3 -7 1 -10 7 -7 12 4 54 -54
49 -69 -1 -4 2 -6 7 -5 6 2 22 -16 38 -39 15 -22 47 -67 70 -100 74 -102 202
-278 210 -288 73 -91 143 -197 137 -206 -4 -7 -3 -9 4 -5 13 8 13 7 107 -124
40 -58 101 -142 135 -188 33 -46 57 -88 54 -94 -4 -6 -3 -8 3 -5 5 3 20 -8 33
-25 18 -25 20 -32 9 -40 -11 -7 -10 -8 4 -6 14 2 56 -47 163 -192 79 -107 161
-220 181 -250 21 -30 59 -83 86 -118 26 -34 45 -67 42 -73 -4 -5 -2 -8 4 -7
14 4 183 -231 175 -244 -4 -6 -3 -8 3 -5 15 9 36 -19 27 -35 -4 -7 -4 -10 1
-6 11 10 37 -11 29 -23 -3 -5 -1 -8 4 -7 6 2 28 -24 50 -57 34 -50 224 -312
277 -380 9 -11 13 -25 11 -32 -3 -7 -1 -12 3 -10 14 3 62 -57 56 -71 -3 -7 -1
-11 3 -8 9 5 33 -20 60 -63 9 -14 62 -87 118 -161 216 -290 237 -322 223 -332
-11 -8 -10 -9 3 -4 12 4 33 -18 80 -81 96 -132 193 -264 223 -303 84 -111 135
-191 129 -201 -4 -7 -3 -9 4 -5 6 3 50 -48 103 -121 52 -71 99 -134 107 -142
7 -7 11 -20 8 -28 -3 -8 -2 -12 3 -9 9 6 23 -11 137 -169 36 -49 74 -101 84
-115 84 -111 100 -136 95 -149 -3 -9 -3 -12 1 -8 9 9 54 -32 54 -50 0 -7 4
-13 8 -13 4 0 16 -15 27 -32 10 -18 21 -35 25 -38 25 -19 90 -121 84 -131 -4
-7 -3 -9 2 -6 10 6 224 -272 224 -291 0 -6 3 -12 8 -14 19 -8 73 -89 66 -99
-4 -7 -3 -9 3 -6 5 3 49 -48 98 -113 l88 -120 2734 0 2733 0 0 2998 0 2998
-22 29 c-13 15 -31 37 -40 47 -10 10 -18 21 -18 24 0 3 -24 38 -54 77 -29 40
-92 126 -139 192 -48 66 -90 125 -94 130 -5 6 -33 44 -63 85 -30 41 -57 77
-60 80 -3 3 -17 21 -30 40 -13 19 -57 80 -98 135 -40 55 -80 109 -88 120 -34
49 -130 181 -141 195 -47 58 -93 127 -93 137 0 7 -3 13 -7 13 -14 0 -104 130
-98 140 3 5 0 7 -7 5 -8 -3 -21 8 -32 27 -11 18 -22 35 -26 38 -3 3 -22 27
-40 55 -19 27 -40 56 -47 65 -64 79 -181 248 -178 257 2 7 -1 12 -7 10 -10 -2
-65 67 -124 156 -27 41 -49 70 -76 99 -10 10 -18 21 -18 24 0 5 -27 42 -160
222 -36 49 -78 108 -95 133 -16 24 -32 46 -36 49 -3 3 -17 21 -31 40 -34 47
-150 205 -227 310 -34 47 -69 94 -76 105 -8 11 -64 88 -125 172 -60 83 -110
154 -110 157 0 3 -12 18 -26 33 -15 15 -34 39 -42 53 -21 32 -93 129 -112 151
-8 10 -31 41 -50 69 -19 28 -54 77 -77 107 -23 31 -40 61 -36 67 3 6 3 8 -2 4
-4 -4 -22 12 -39 35 -17 23 -40 54 -51 69 -11 15 -54 76 -96 135 -42 59 -87
120 -100 134 -13 14 -30 37 -38 50 -8 13 -58 83 -112 155 -55 73 -99 137 -99
143 0 6 -3 11 -7 11 -5 0 -46 54 -93 120 -76 106 -110 138 -122 113z m-223
-1588 l37 -45 43 30 c24 17 51 30 59 30 31 0 16 -37 -28 -70 l-45 -33 30 -43
c32 -47 36 -69 14 -77 -12 -5 -40 23 -82 82 -1 2 -25 -11 -53 -29 -46 -30 -53
-31 -67 -18 -14 14 -12 18 14 42 17 15 38 33 49 40 18 14 18 16 -13 60 -32 45
-35 76 -8 76 8 0 30 -20 50 -45z m756 -1037 c18 -24 34 -45 36 -47 2 -3 24 10
49 28 77 54 105 18 32 -42 l-42 -35 31 -47 c53 -81 12 -107 -45 -29 l-33 44
-44 -30 c-50 -35 -75 -38 -75 -11 0 12 18 33 44 52 l45 32 -34 50 c-26 38 -32
54 -23 64 16 20 24 16 59 -29z m766 -1048 c15 -22 33 -40 39 -40 6 0 30 14 54
31 39 29 44 30 59 14 17 -18 19 -16 -58 -76 l-24 -20 32 -45 c53 -76 18 -106
-39 -34 -17 22 -36 40 -41 40 -5 0 -27 -13 -50 -29 -74 -54 -98 -8 -24 48 l45
33 -30 43 c-17 24 -30 51 -30 59 0 30 38 16 67 -24z"/>
<path d="M37381 10767 c2 -1 13 -9 24 -17 19 -14 19 -14 6 3 -7 9 -18 17 -24
17 -6 0 -8 -1 -6 -3z"/>
<path d="M45500 10726 c0 -2 8 -10 18 -17 15 -13 16 -12 3 4 -13 16 -21 21
-21 13z"/>
<path d="M45581 10618 c5 -10 11 -18 12 -18 2 0 3 8 3 18 0 10 -6 19 -13 19
-8 0 -9 -6 -2 -19z"/>
<path d="M45670 10487 c0 -2 6 -10 14 -16 11 -9 16 -9 22 1 4 7 4 10 -1 6 -4
-4 -14 -3 -22 3 -7 6 -13 9 -13 6z"/>
<path d="M45720 10460 c-6 -11 -8 -20 -6 -20 3 0 10 9 16 20 6 11 8 20 6 20
-3 0 -10 -9 -16 -20z"/>
<path d="M37935 10260 c10 -11 20 -20 23 -20 3 0 -3 9 -13 20 -10 11 -20 20
-23 20 -3 0 3 -9 13 -20z"/>
<path d="M38290 9900 c0 -5 5 -10 11 -10 5 0 7 5 4 10 -3 6 -8 10 -11 10 -2 0
-4 -4 -4 -10z"/>
<path d="M39006 9425 c4 -8 11 -15 16 -15 6 0 5 6 -2 15 -7 8 -14 15 -16 15
-2 0 -1 -7 2 -15z"/>
<path d="M39165 9330 c3 -5 8 -10 11 -10 2 0 4 5 4 10 0 6 -5 10 -11 10 -5 0
-7 -4 -4 -10z"/>
<path d="M9320 9059 c0 -5 5 -7 10 -4 6 3 10 8 10 11 0 2 -4 4 -10 4 -5 0 -10
-5 -10 -11z"/>
<path d="M39920 8926 c0 -2 7 -9 15 -16 9 -7 15 -8 15 -2 0 5 -7 12 -15 16 -8
3 -15 4 -15 2z"/>
<path d="M40500 8435 c-11 -13 -10 -14 4 -9 9 3 16 10 16 15 0 13 -6 11 -20
-6z"/>
<path d="M40409 8363 c-13 -17 -13 -17 6 -3 11 8 22 16 24 17 2 2 0 3 -6 3 -6
0 -17 -8 -24 -17z"/>
<path d="M40025 8150 c-3 -6 1 -7 9 -4 18 7 21 14 7 14 -6 0 -13 -4 -16 -10z"/>
<path d="M40064 8114 c-18 -14 -18 -15 4 -4 12 6 22 13 22 15 0 8 -5 6 -26
-11z"/>
<path d="M39960 8039 c0 -5 5 -7 10 -4 6 3 10 8 10 11 0 2 -4 4 -10 4 -5 0
-10 -5 -10 -11z"/>
<path d="M39865 7969 c-4 -5 -18 -14 -31 -19 -13 -5 -24 -15 -23 -22 0 -10 2
-10 6 0 2 6 10 12 17 12 7 0 21 9 31 20 10 11 15 20 12 20 -3 0 -9 -5 -12 -11z"/>
<path d="M39790 7904 c0 -5 7 -18 15 -28 8 -11 15 -16 15 -10 0 5 -7 18 -15
28 -8 11 -15 16 -15 10z"/>
<path d="M39890 7740 c0 -5 5 -10 11 -10 5 0 7 5 4 10 -3 6 -8 10 -11 10 -2 0
-4 -4 -4 -10z"/>
<path d="M39921 7714 c0 -11 3 -14 6 -6 3 7 2 16 -1 19 -3 4 -6 -2 -5 -13z"/>
<path d="M39946 7687 c3 -10 9 -15 12 -12 3 3 0 11 -7 18 -10 9 -11 8 -5 -6z"/>
<path d="M40096 7477 c3 -10 9 -15 12 -12 3 3 0 11 -7 18 -10 9 -11 8 -5 -6z"/>
<path d="M40167 7383 c4 -11 3 -14 -5 -9 -8 5 -10 1 -5 -10 4 -11 8 -13 11 -6
2 7 8 9 14 6 6 -4 5 2 -1 15 -14 25 -23 28 -14 4z"/>
<path d="M40201 7333 c7 -12 15 -20 18 -17 3 2 -3 12 -13 22 -17 16 -18 16 -5
-5z"/>
<path d="M40230 7296 c0 -2 8 -10 18 -17 15 -13 16 -12 3 4 -13 16 -21 21 -21
13z"/>
<path d="M40410 7051 c0 -6 4 -13 10 -16 6 -3 7 1 4 9 -7 18 -14 21 -14 7z"/>
<path d="M40446 6983 c-6 -14 -5 -15 5 -6 7 7 10 15 7 18 -3 3 -9 -2 -12 -12z"/>
<path d="M40616 6767 c3 -10 9 -15 12 -12 3 3 0 11 -7 18 -10 9 -11 8 -5 -6z"/>
<path d="M40636 6732 c-3 -5 1 -9 9 -9 8 0 12 4 9 9 -3 4 -7 8 -9 8 -2 0 -6
-4 -9 -8z"/>
<path d="M40660 6702 c0 -12 19 -26 26 -19 2 2 -2 10 -11 17 -9 8 -15 8 -15 2z"/>
<path d="M6770 5635 c-7 -9 -11 -17 -9 -20 3 -2 10 5 17 15 14 24 10 26 -8 5z"/>
<path d="M6135 4760 c-3 -5 -1 -10 4 -10 6 0 11 5 11 10 0 6 -2 10 -4 10 -3 0
-8 -4 -11 -10z"/>
<path d="M41225 4420 c3 -5 8 -10 11 -10 2 0 4 5 4 10 0 6 -5 10 -11 10 -5 0
-7 -4 -4 -10z"/>
<path d="M5250 3555 c-7 -9 -11 -17 -9 -20 3 -2 10 5 17 15 14 24 10 26 -8 5z"/>
<path d="M4610 2675 c-7 -9 -11 -17 -9 -20 3 -2 10 5 17 15 14 24 10 26 -8 5z"/>
<path d="M3095 600 c-3 -5 -1 -10 4 -10 6 0 11 5 11 10 0 6 -2 10 -4 10 -3 0
-8 -4 -11 -10z"/>
</g>
</svg>
