<?xml version="1.0" standalone="no"?>
<!DOCTYPE svg PUBLIC "-//W3C//DTD SVG 20010904//EN"
 "http://www.w3.org/TR/2001/REC-SVG-20010904/DTD/svg10.dtd">
<svg version="1.0" xmlns="http://www.w3.org/2000/svg"
 width="1400.000000pt" height="980.000000pt" viewBox="0 0 1400.000000 980.000000"
 preserveAspectRatio="xMidYMid meet">

<g transform="translate(0.000000,980.000000) scale(0.100000,-0.100000)"
fill="#000000" stroke="none">
<path d="M11124 8930 c-33 -16 -78 -45 -101 -65 -35 -30 -49 -35 -90 -35 -72
0 -119 -17 -150 -53 -17 -20 -45 -38 -70 -45 -76 -22 -124 -77 -138 -157 -6
-30 -23 -56 -66 -102 -55 -58 -59 -64 -59 -110 0 -27 11 -73 24 -106 13 -31
20 -60 15 -63 -5 -3 -18 -23 -29 -45 -23 -44 -17 -67 24 -94 23 -16 24 -17 10
-68 -8 -29 -14 -82 -14 -119 0 -83 22 -113 116 -159 51 -26 64 -36 64 -55 0
-36 30 -103 51 -114 10 -6 35 -10 57 -10 28 0 45 -7 61 -24 12 -13 50 -36 83
-51 54 -24 70 -27 128 -22 37 3 84 13 105 21 21 9 40 14 42 12 3 -2 -5 -22
-17 -45 -15 -30 -26 -41 -44 -41 -59 0 -83 -12 -105 -51 -44 -77 -11 -123 100
-139 104 -16 254 7 343 52 48 24 112 82 132 121 l15 27 -41 0 c-45 0 -44 -3
-27 65 l13 50 90 5 c113 6 145 24 190 105 l33 60 57 7 c116 15 184 71 184 151
0 24 9 52 25 75 14 20 25 51 25 69 0 18 12 67 26 110 22 65 25 90 22 167 -4
102 -20 145 -75 203 -27 30 -33 44 -33 82 0 50 -29 123 -63 159 -23 25 -88 62
-108 62 -7 0 -28 18 -46 40 -19 22 -56 52 -81 68 -39 22 -58 27 -112 26 -36
-1 -81 -8 -102 -17 l-36 -15 -13 29 c-24 59 -84 76 -132 38 l-27 -20 -43 25
c-63 37 -135 36 -213 -4z"/>
<path d="M6393 8776 c-1 -81 -7 -125 -20 -157 -18 -45 -22 -154 -9 -243 l6
-41 -21 38 c-18 34 -22 37 -37 26 -51 -39 -55 -84 -13 -151 35 -54 82 -90 123
-92 27 -1 33 -8 51 -51 36 -87 32 -298 -8 -456 -6 -25 -3 -28 48 -47 200 -75
495 -68 697 17 112 47 107 39 71 116 -34 71 -71 209 -71 262 0 43 49 133 73
133 29 0 93 37 120 70 45 53 58 150 24 172 -32 20 -44 7 -70 -79 -48 -158 -63
-152 -59 21 l3 123 -48 19 c-26 10 -51 21 -55 22 -5 2 -8 -9 -8 -25 0 -47 -40
-106 -90 -130 -24 -13 -56 -23 -70 -23 -41 0 -113 42 -138 80 -20 29 -23 45
-20 93 7 94 65 149 157 149 58 0 98 -21 131 -69 16 -24 46 -46 85 -65 l60 -28
8 72 c8 81 1 178 -14 178 -27 0 -93 55 -108 91 -10 25 -23 39 -34 39 -10 0
-71 -13 -135 -29 -135 -34 -240 -51 -311 -51 -105 0 -214 38 -283 99 l-33 28
-2 -111z m266 -179 c38 -23 71 -85 71 -137 0 -76 -84 -160 -160 -160 -36 0
-110 40 -134 72 -27 38 -32 123 -9 167 44 84 146 110 232 58z"/>
<path d="M6510 8581 c-50 -26 -72 -61 -72 -114 -2 -135 173 -188 242 -74 41
67 18 152 -50 187 -49 25 -76 25 -120 1z"/>
<path d="M6974 8586 c-45 -20 -77 -70 -77 -122 0 -104 112 -167 200 -113 88
55 83 188 -10 232 -42 20 -71 21 -113 3z"/>
<path d="M2188 8461 c-23 -16 -60 -44 -81 -62 l-38 -34 171 -252 c154 -227
175 -254 216 -273 52 -26 85 -19 139 29 21 18 63 38 107 51 90 27 162 62 166
82 2 10 -32 37 -97 77 -112 68 -122 82 -201 263 -61 139 -62 140 -214 144
-121 3 -125 2 -168 -25z m316 -293 c8 -14 7 -21 -6 -34 -30 -30 -75 9 -48 42
16 18 39 15 54 -8z"/>
<path d="M1890 8215 c-33 -40 0 -172 76 -301 l28 -47 -63 -59 c-35 -33 -80
-72 -102 -87 -21 -16 -56 -51 -76 -79 -21 -27 -78 -82 -126 -122 -48 -39 -87
-75 -87 -80 0 -4 16 -11 35 -14 19 -4 69 -25 111 -47 98 -52 128 -61 369 -108
110 -22 213 -45 229 -51 16 -6 30 -9 31 -8 2 2 24 31 49 66 l46 62 0 158 c0
190 -2 194 -141 377 -100 132 -121 168 -139 235 -20 77 -62 107 -163 117 -52
5 -65 3 -77 -12z"/>
<path d="M2805 7829 c-19 -12 -48 -19 -80 -19 -36 0 -46 -3 -35 -10 36 -24
150 7 150 40 0 12 2 13 -35 -11z"/>
<path d="M11631 7381 c-33 -33 -26 -41 38 -41 85 0 228 -27 289 -55 72 -33
109 -60 142 -107 l28 -38 26 32 25 32 -22 39 c-36 64 -117 115 -217 136 -30 7
-107 15 -171 18 -110 6 -117 5 -138 -16z"/>
<path d="M10770 7363 c-110 -5 -125 -10 -125 -38 l0 -25 157 0 c86 0 164 3
173 6 8 4 22 19 31 35 l15 29 -93 -2 c-51 -1 -122 -3 -158 -5z"/>
<path d="M10567 7279 c-29 -31 -72 -81 -96 -112 -43 -57 -44 -58 -25 -79 26
-29 114 -98 125 -98 5 0 9 19 9 43 0 45 22 179 40 247 6 23 9 45 5 48 -3 3
-29 -19 -58 -49z"/>
<path d="M11564 7289 l-35 -36 88 -7 c182 -13 339 -69 404 -144 l31 -35 31 31
30 31 -27 36 c-69 89 -198 142 -379 153 l-108 7 -35 -36z"/>
<path d="M10743 7283 c-57 -2 -103 -5 -103 -6 0 -1 -4 -17 -10 -36 l-9 -34
184 6 c102 3 185 3 185 -2 0 -8 -196 -21 -311 -21 -59 0 -69 -7 -69 -51 0 -18
14 -19 503 -19 294 0 529 -4 567 -10 101 -16 183 -47 229 -86 45 -39 43 -39
104 9 25 21 22 30 -24 72 -76 68 -213 112 -387 124 -82 5 -104 4 -142 -12
-110 -45 -293 -62 -396 -36 -49 13 -84 48 -84 85 0 27 27 25 -237 17z"/>
<path d="M10600 7068 c0 -31 4 -38 23 -42 12 -3 238 -7 502 -10 528 -7 574
-11 672 -66 l55 -31 39 25 c22 15 36 31 33 39 -8 22 -85 66 -154 90 -63 21
-83 22 -618 27 l-552 5 0 -37z"/>
<path d="M10590 6990 c0 -14 19 -32 57 -57 l58 -37 415 -8 c305 -6 438 -12
502 -24 l87 -16 56 26 c30 14 55 29 55 34 0 15 -75 51 -141 67 -68 16 -201 21
-766 30 -317 4 -323 4 -323 -15z"/>
<path d="M10765 6872 c18 -16 108 -50 188 -71 219 -57 434 -53 652 12 l70 20
-54 13 c-31 7 -162 15 -310 18 -141 4 -323 9 -406 12 -90 3 -146 2 -140 -4z"/>
<path d="M7238 6785 c-67 -35 -118 -40 -233 -20 -209 36 -481 18 -654 -44
-197 -69 -330 -201 -413 -411 -46 -115 -23 -334 60 -567 20 -58 26 -86 19 -98
-5 -10 -7 -42 -5 -71 6 -69 43 -118 118 -157 50 -25 56 -32 79 -90 21 -54 24
-78 24 -187 0 -132 -16 -217 -55 -293 l-19 -39 267 -272 c147 -149 297 -300
333 -335 65 -64 65 -65 132 -245 l67 -181 10 40 c6 22 25 105 42 185 l32 145
161 265 c88 146 170 280 183 298 l22 34 -47 62 c-26 34 -53 82 -60 107 -17 61
-29 227 -19 269 14 64 10 89 -14 94 -151 28 -232 58 -274 100 l-31 31 -17 -23
c-39 -52 -195 -105 -306 -104 -70 1 -186 24 -203 41 -22 22 4 22 60 1 92 -36
205 -33 308 8 105 42 123 58 145 123 l18 54 7 -43 c11 -60 49 -94 148 -133 65
-26 97 -33 157 -33 72 -1 170 19 170 34 0 4 -12 12 -27 19 -53 24 -134 85
-129 97 16 42 27 148 21 207 -4 40 -2 67 3 67 10 0 42 71 42 92 0 6 -10 -4
-22 -22 -41 -59 -72 -75 -147 -75 -57 0 -74 4 -107 27 -56 39 -78 81 -80 153
-1 53 -4 62 -26 74 -23 13 -30 13 -67 -4 -45 -20 -64 -14 -39 12 21 20 113 30
132 14 12 -10 21 -5 51 28 43 47 90 65 156 59 60 -6 110 -42 136 -98 10 -22
22 -40 26 -40 5 0 5 53 1 118 l-7 119 45 26 c57 33 140 133 180 217 42 86 51
203 21 272 l-20 44 -134 32 c-74 18 -143 35 -154 37 -11 3 -41 -7 -67 -20z
m-485 -731 c69 -35 107 -95 107 -169 0 -77 -41 -140 -113 -170 -116 -48 -241
29 -256 159 l-6 54 -109 -49 c-154 -70 -236 -102 -243 -95 -4 3 -4 7 -2 9 14
10 209 101 281 132 63 26 95 47 113 71 52 68 156 94 228 58z"/>
<path d="M6645 6040 c-49 -11 -74 -29 -100 -70 -67 -106 6 -240 131 -240 193
0 214 274 24 312 -14 3 -38 2 -55 -2z"/>
<path d="M8069 6218 c-23 -85 7 -237 81 -423 31 -75 61 -173 75 -242 13 -63
43 -171 66 -240 23 -69 37 -128 33 -133 -5 -4 -27 -13 -49 -20 -71 -22 -194
-91 -225 -126 -40 -46 -40 -90 3 -179 49 -102 230 -367 272 -399 20 -16 34
-30 32 -32 -2 -3 -116 27 -253 66 -137 39 -265 72 -285 73 -21 1 -35 5 -33 9
3 4 -15 12 -38 19 -24 6 -56 15 -72 20 -17 5 -33 6 -37 2 -9 -9 -56 -468 -98
-963 -32 -367 -33 -380 -35 -480 0 -36 -4 -67 -8 -70 -3 -3 -9 -57 -12 -120
-4 -63 -15 -236 -26 -385 -33 -469 -65 -1138 -72 -1510 -5 -293 -1 -862 7
-977 l7 -108 2534 0 2534 0 0 555 0 555 -575 0 c-453 0 -575 3 -575 13 0 63
-24 306 -36 362 -41 198 -252 665 -765 1695 -174 349 -331 670 -349 713 -17
42 -35 77 -39 77 -3 0 -42 -14 -86 -31 -232 -89 -602 -212 -775 -258 l-149
-39 -61 155 c-33 86 -59 157 -58 159 2 1 100 35 218 74 206 68 538 160 580
160 11 0 20 2 20 5 0 2 -20 37 -44 77 -69 114 -145 278 -156 337 -6 31 -36
102 -72 170 -125 236 -113 199 -114 356 0 84 -5 151 -12 168 -14 32 -72 62
-142 73 -36 6 -53 16 -83 50 -51 57 -86 68 -160 49 -32 -8 -71 -22 -87 -30
-27 -14 -31 -14 -48 2 -31 31 -48 42 -83 57 -32 13 -39 13 -77 -4 -23 -10 -64
-40 -91 -65 l-49 -46 -44 83 c-136 251 -210 403 -237 483 -17 50 -31 85 -31
79 0 -6 -22 -21 -49 -34 -46 -21 -71 -21 -71 0 0 11 89 54 108 53 17 -1 16 2
-19 68 -41 76 -108 139 -148 139 -27 0 -31 -5 -42 -42z m1254 -5000 l102 -103
-124 -3 c-68 -1 -126 -1 -128 2 -4 4 13 138 24 184 3 12 9 22 14 22 6 0 56
-46 112 -102z m322 -358 c3 -5 -1 -10 -9 -10 -14 0 -16 -32 -16 -270 l0 -270
1330 0 1330 0 0 270 0 270 -501 0 c-331 0 -498 3 -494 10 4 6 185 10 511 10
l504 0 0 -290 0 -290 -1350 0 -1350 0 0 290 c0 280 1 290 19 290 11 0 23 -4
26 -10z m1529 -236 c21 -56 -15 -114 -73 -114 -20 0 -46 7 -57 16 -18 15 -18
15 4 10 12 -3 30 -9 40 -12 10 -3 30 4 46 17 24 19 28 27 23 61 -5 38 5 52 17
22z"/>
<path d="M7130 6042 c-56 -25 -100 -88 -100 -145 0 -101 100 -183 192 -156
143 41 175 204 56 282 -42 27 -110 36 -148 19z"/>
<path d="M2925 5350 c-63 -16 -116 -36 -280 -101 -77 -31 -188 -104 -234 -154
-47 -51 -91 -136 -91 -176 0 -73 -58 -202 -144 -322 -31 -43 -56 -89 -56 -102
0 -13 7 -55 15 -94 110 -523 591 -896 1118 -867 177 10 308 42 442 109 33 16
61 31 63 32 2 2 -30 45 -70 96 -40 52 -87 117 -105 144 -33 52 -63 147 -63
201 0 29 3 32 39 38 38 6 40 8 47 53 7 47 -2 306 -15 398 -6 47 -4 54 36 113
85 125 96 261 32 368 -72 120 -252 243 -397 273 -84 17 -256 13 -337 -9z"/>
<path d="M11855 4954 c-53 -20 -112 -78 -141 -139 -32 -66 -33 -164 -3 -256
l22 -66 -25 -55 c-14 -30 -53 -84 -87 -121 -61 -64 -62 -66 -43 -84 10 -10 26
-22 35 -28 16 -9 16 -17 -4 -110 -11 -56 -18 -121 -16 -148 8 -91 73 -122 197
-93 57 13 68 13 87 0 13 -8 26 -26 29 -39 7 -29 -3 -145 -15 -163 -4 -7 -41
-20 -80 -28 -88 -18 -124 -31 -117 -42 11 -18 176 -92 251 -114 65 -18 105
-22 215 -22 136 0 219 15 320 58 l35 15 -40 17 c-22 10 -83 30 -135 44 l-95
27 -3 54 c-2 30 -1 100 3 156 l7 102 51 30 c29 16 67 42 86 58 l35 30 24 -49
c28 -56 63 -78 124 -78 86 0 169 71 228 195 70 147 97 389 53 485 -38 87 -100
118 -213 107 l-58 -5 -18 41 c-27 60 -113 141 -186 175 -83 40 -142 49 -328
56 -122 4 -164 2 -195 -10z"/>
<path d="M5952 4653 c-12 -2 -20 -8 -17 -13 3 -4 -4 -6 -15 -3 -12 3 -20 0
-20 -6 0 -7 -4 -10 -8 -7 -15 9 -220 -61 -547 -187 -580 -224 -937 -392 -1004
-474 -17 -21 -38 -58 -46 -84 -9 -25 -27 -57 -41 -70 -33 -31 -129 -185 -165
-266 -28 -62 -64 -169 -74 -222 -28 -134 -53 -304 -80 -541 -4 -30 -8 -68 -11
-85 -2 -16 -7 -52 -10 -80 -5 -50 -70 -606 -79 -680 -3 -22 -16 -137 -30 -255
-13 -118 -34 -295 -46 -392 l-22 -178 -1004 0 -1003 0 0 -555 0 -555 2565 0
2565 0 -5 38 c-3 20 -26 224 -51 452 -25 228 -47 429 -49 445 -2 17 -7 68 -10
115 -3 47 -8 91 -10 98 -3 8 -8 53 -11 100 -4 48 -9 88 -13 90 -4 1 -6 21 -4
44 1 23 -1 46 -5 52 -3 6 -5 20 -4 31 1 11 -14 169 -33 350 -19 182 -38 364
-40 405 -3 41 -8 82 -11 90 -3 8 -7 46 -9 84 -2 38 -9 72 -15 76 -9 6 -9 9 1
12 10 4 11 8 3 19 -6 8 -9 27 -8 44 2 16 -6 88 -16 160 -11 71 -22 144 -24
160 -2 17 -9 59 -16 95 -6 36 -14 82 -17 102 -3 21 -9 35 -14 33 -4 -3 -11 0
-15 6 -4 8 -3 9 4 5 19 -11 7 56 -49 278 -28 111 -58 210 -67 220 -11 13 -12
17 -3 11 11 -6 13 -4 7 11 -4 10 -19 55 -32 99 -31 105 -106 319 -113 325 -3
3 -7 12 -9 20 -9 48 -137 348 -159 373 -9 9 -13 17 -9 17 7 0 -39 96 -57 119
-12 14 -18 37 -18 64 0 9 -1 16 -2 16 -1 -1 -12 -4 -25 -6z m-2252 -3793 c0
-7 -282 -10 -825 -10 l-825 0 0 -270 0 -270 536 0 c354 0 533 -3 529 -10 -4
-6 -197 -10 -546 -10 l-539 0 0 290 0 290 835 0 c550 0 835 -3 835 -10z m-435
-215 c51 -50 17 -135 -55 -135 -48 0 -79 25 -86 70 -12 76 85 121 141 65z"/>
<path d="M3182 649 c-53 -20 -51 -96 3 -121 22 -10 30 -8 53 9 63 47 17 139
-56 112z"/>
</g>
</svg>
